<svg xmlns="http://www.w3.org/2000/svg" xmlns:xlink="http://www.w3.org/1999/xlink" viewBox="0 0 211.66 52.91"><defs><style>.cls-1{fill:#fff;}.cls-2{fill:url(#Degradado_sin_nombre_6);}.cls-3{fill:#bd9f58;}</style><linearGradient id="Degradado_sin_nombre_6" x1="27.68" y1="45.39" x2="27.68" y2="7.52" gradientUnits="userSpaceOnUse"><stop offset="0" stop-color="#987838"/><stop offset="0.34" stop-color="#b99b55"/><stop offset="0.77" stop-color="#dec274"/><stop offset="0.99" stop-color="#ecd180"/></linearGradient></defs><g id="Capa_2" data-name="Capa 2"><g id="LOGO_PRINC" data-name="LOGO PRINC"><rect class="cls-1" width="211.66" height="52.91" rx="26.46"/><path class="cls-2" d="M42.29,14.42a1.44,1.44,0,0,0-1.84-1.94,19,19,0,1,0,1.84,1.94ZM23,26.44a1.44,1.44,0,0,0,0-2.62V18.53l4.12-2.89V44.17A18.07,18.07,0,0,1,23,43.54Zm5.34-10.8,4.12,2.89V24l-4.12-2.88Zm8.35,13.77V41.74a17.74,17.74,0,0,1-3,1.42V26.29l2.2,1.54a2.46,2.46,0,0,0,0,.26A1.46,1.46,0,0,0,36.64,29.41ZM32.41,43.54a18.07,18.07,0,0,1-4.12.63V22.56l4.12,2.88ZM37.85,41V29.4a1.44,1.44,0,0,0-.6-2.75,1.47,1.47,0,0,0-.73.19l-2.9-2v-6.6a.63.63,0,0,0-.26-.5L28,14l0,0,0,0,0,0-.08,0-.08,0H27.6l-.08,0-.08,0,0,0,0,0,0,0L22,17.71a.63.63,0,0,0-.26.5v5.61a1.44,1.44,0,0,0-.84,1.31,2.28,2.28,0,0,0,0,.26L17.76,27.6a.6.6,0,0,0-.25.49v7.28a1.45,1.45,0,1,0,1.21,0v-7l2.9-2,.12.06V43.16A17.72,17.72,0,1,1,39.6,13.35a1.51,1.51,0,0,0-.08.48A1.45,1.45,0,0,0,41,15.28a1.42,1.42,0,0,0,.42-.06A17.69,17.69,0,0,1,37.85,41Z"/><path d="M60.94,29.31a3.3,3.3,0,0,1-1.31.23,3.06,3.06,0,0,1-1.18-.22,2.69,2.69,0,0,1-.92-.63,2.87,2.87,0,0,1-.59-1,3.49,3.49,0,0,1-.22-1.29,3.39,3.39,0,0,1,.22-1.25,2.87,2.87,0,0,1,.59-1,2.58,2.58,0,0,1,.93-.62,3,3,0,0,1,1.17-.22,3.23,3.23,0,0,1,1.29.24,2.75,2.75,0,0,1,.94.66l1.79-1.81a5.74,5.74,0,0,0-1.76-1.09A6.19,6.19,0,0,0,59.63,21a5.83,5.83,0,0,0-2.23.42,5.67,5.67,0,0,0-1.79,1.15,5,5,0,0,0-1.19,1.72A5.54,5.54,0,0,0,54,26.43a5.45,5.45,0,0,0,.43,2.19,5.34,5.34,0,0,0,1.19,1.74,5.63,5.63,0,0,0,1.8,1.16,6.11,6.11,0,0,0,2.24.41,6.19,6.19,0,0,0,2.3-.39,6.07,6.07,0,0,0,1.75-1.09l-1.79-1.79A2.85,2.85,0,0,1,60.94,29.31Z"/><path d="M75.16,22.53a5.12,5.12,0,0,0-1.79-1.16A6.14,6.14,0,0,0,71.11,21a6,6,0,0,0-2.25.41,5.16,5.16,0,0,0-1.8,1.16,5.32,5.32,0,0,0-1.61,3.9,5.44,5.44,0,0,0,.43,2.18,5.35,5.35,0,0,0,1.2,1.75,5.64,5.64,0,0,0,1.81,1.17,5.85,5.85,0,0,0,2.25.42,6.07,6.07,0,0,0,2.24-.41,5.45,5.45,0,0,0,3-2.92,5.69,5.69,0,0,0,0-4.34A5.28,5.28,0,0,0,75.16,22.53Zm-1.48,5.55a2.62,2.62,0,0,1-1,1.09,3,3,0,0,1-1.55.39,3.09,3.09,0,0,1-1.2-.22,2.44,2.44,0,0,1-.94-.63,2.92,2.92,0,0,1-.59-1,4.08,4.08,0,0,1-.2-1.3,3.4,3.4,0,0,1,.37-1.62,2.57,2.57,0,0,1,1-1.07,3,3,0,0,1,1.54-.38,3.29,3.29,0,0,1,1.2.21,2.69,2.69,0,0,1,.92.63,2.63,2.63,0,0,1,.59,1A3.6,3.6,0,0,1,74,26.43,3.71,3.71,0,0,1,73.68,28.08Z"/><polygon points="85.86 27.17 81.11 21.16 79.24 21.16 79.24 31.75 81.92 31.75 81.92 25.88 86.55 31.75 88.54 31.75 88.54 21.16 85.86 21.16 85.86 27.17"/><polygon points="94.22 27.45 98.86 27.45 98.86 25.25 94.22 25.25 94.22 23.41 99.33 23.41 99.33 21.16 94.22 21.16 93.66 21.16 91.54 21.16 91.54 31.75 93.66 31.75 94.22 31.75 99.4 31.75 99.4 29.5 94.22 29.5 94.22 27.45"/><path d="M108.45,29.31a3.3,3.3,0,0,1-1.31.23,3.06,3.06,0,0,1-1.18-.22,2.65,2.65,0,0,1-.91-.63,2.74,2.74,0,0,1-.6-1,3.49,3.49,0,0,1-.22-1.29,3.39,3.39,0,0,1,.22-1.25,2.74,2.74,0,0,1,.6-1,2.45,2.45,0,0,1,.92-.62,3.08,3.08,0,0,1,1.17-.22,3.23,3.23,0,0,1,1.29.24,2.75,2.75,0,0,1,.94.66l1.8-1.81a5.91,5.91,0,0,0-1.77-1.09,6.19,6.19,0,0,0-2.26-.39,5.83,5.83,0,0,0-2.23.42,5.67,5.67,0,0,0-1.79,1.15,5,5,0,0,0-1.19,1.72,5.54,5.54,0,0,0-.42,2.16,5.45,5.45,0,0,0,.43,2.19,5.34,5.34,0,0,0,1.19,1.74,5.86,5.86,0,0,0,1.8,1.16,6.11,6.11,0,0,0,2.24.41,6.19,6.19,0,0,0,2.3-.39,6.07,6.07,0,0,0,1.75-1.09l-1.79-1.79A2.85,2.85,0,0,1,108.45,29.31Z"/><polygon points="112.82 23.46 116.05 23.46 116.05 31.75 118.73 31.75 118.73 23.46 121.98 23.46 121.98 21.16 112.82 21.16 112.82 23.46"/><polygon points="127.65 21.16 123.53 31.75 126.29 31.75 128.92 24.23 131.5 31.75 134.31 31.75 130.24 21.16 127.65 21.16"/><polygon points="143.15 27.17 138.4 21.16 136.53 21.16 136.53 31.75 139.2 31.75 139.2 25.88 143.84 31.75 145.82 31.75 145.82 21.16 143.15 21.16 143.15 27.17"/><path d="M157.26,22.62a5.22,5.22,0,0,0-1.81-1.08,6.58,6.58,0,0,0-2.26-.38h-4.36V31.75h4.39a6.27,6.27,0,0,0,2.24-.38,5.27,5.27,0,0,0,1.8-1.08,5,5,0,0,0,1.18-1.68,5.4,5.4,0,0,0,.41-2.16,5.32,5.32,0,0,0-.41-2.15A5,5,0,0,0,157.26,22.62Zm-1.5,5.47a2.36,2.36,0,0,1-1,1,3.37,3.37,0,0,1-1.55.34H151.5v-6h1.68a3.3,3.3,0,0,1,1.54.35,2.45,2.45,0,0,1,1,1,3.22,3.22,0,0,1,.37,1.61A3.54,3.54,0,0,1,155.76,28.09Z"/><path d="M171.7,24.28a5.28,5.28,0,0,0-1.19-1.75,5.12,5.12,0,0,0-1.79-1.16,6.14,6.14,0,0,0-2.26-.41,6,6,0,0,0-2.25.41,5.16,5.16,0,0,0-1.8,1.16,5.32,5.32,0,0,0-1.61,3.9,5.44,5.44,0,0,0,.43,2.18,5.35,5.35,0,0,0,1.2,1.75,5.64,5.64,0,0,0,1.81,1.17,5.85,5.85,0,0,0,2.25.42,6.07,6.07,0,0,0,2.24-.41,5.45,5.45,0,0,0,3-2.92,5.69,5.69,0,0,0,0-4.34ZM169,28.08a2.62,2.62,0,0,1-1,1.09,3,3,0,0,1-1.55.39,3.09,3.09,0,0,1-1.2-.22,2.51,2.51,0,0,1-.94-.63,2.92,2.92,0,0,1-.59-1,4.08,4.08,0,0,1-.2-1.3,3.4,3.4,0,0,1,.37-1.62,2.57,2.57,0,0,1,1-1.07,3,3,0,0,1,1.54-.38,3.29,3.29,0,0,1,1.2.21,2.66,2.66,0,0,1,1.51,1.61,3.6,3.6,0,0,1,.21,1.25A3.71,3.71,0,0,1,169,28.08Z"/><path class="cls-3" d="M185,21.56a4.09,4.09,0,0,0-1.85-.4h-4.66V31.75h2.68V28h2a4,4,0,0,0,1.85-.41,3.17,3.17,0,0,0,1.29-1.17,3.73,3.73,0,0,0,0-3.66A3.17,3.17,0,0,0,185,21.56Zm-1.07,3.78a1.21,1.21,0,0,1-.51.47,1.54,1.54,0,0,1-.71.16h-1.54V23.15h1.54a1.54,1.54,0,0,1,.71.16,1.3,1.3,0,0,1,.51.48,1.46,1.46,0,0,1,.2.78A1.5,1.5,0,0,1,183.93,25.34Z"/><polygon class="cls-3" points="195.57 21.16 195.57 25.21 191.76 25.21 191.76 21.16 189.09 21.16 189.09 31.75 191.76 31.75 191.76 27.46 195.57 27.46 195.57 31.75 198.25 31.75 198.25 21.16 195.57 21.16"/></g></g></svg>