<svg xmlns="http://www.w3.org/2000/svg" xmlns:xlink="http://www.w3.org/1999/xlink" viewBox="0 0 247.94 159.72"><defs><style>.cls-1{fill:#fff;}.cls-2{fill:#bd9f58;}.cls-3{fill:url(#Degradado_sin_nombre_6);}</style><linearGradient id="Degradado_sin_nombre_6" x1="123.97" y1="130.2" x2="123.97" gradientUnits="userSpaceOnUse"><stop offset="0" stop-color="#987838"/><stop offset="0.34" stop-color="#b99b55"/><stop offset="0.77" stop-color="#dec274"/><stop offset="0.99" stop-color="#ecd180"/></linearGradient></defs><g id="Capa_2" data-name="Capa 2"><g id="LOGO_PRINC" data-name="LOGO PRINC"><path class="cls-1" d="M11.93,155.19a5.76,5.76,0,0,1-2.25.4,5.12,5.12,0,0,1-2-.39,4.28,4.28,0,0,1-1.58-1.08,4.86,4.86,0,0,1-1-1.67,6.08,6.08,0,0,1-.37-2.2,6,6,0,0,1,.37-2.16,5,5,0,0,1,1-1.67,4.33,4.33,0,0,1,1.59-1.07,5.36,5.36,0,0,1,2-.37,5.59,5.59,0,0,1,2.21.41,4.59,4.59,0,0,1,1.62,1.13l3.08-3.11a9.74,9.74,0,0,0-3-1.86,10.52,10.52,0,0,0-3.88-.68,10.09,10.09,0,0,0-3.84.72,9.81,9.81,0,0,0-3.08,2,8.72,8.72,0,0,0-2,3,10,10,0,0,0,0,7.47,9,9,0,0,0,2.06,3,9.6,9.6,0,0,0,3.09,2,10.16,10.16,0,0,0,3.86.72,10.55,10.55,0,0,0,3.94-.68,10.74,10.74,0,0,0,3-1.86l-3.08-3.09A5.09,5.09,0,0,1,11.93,155.19Z"/><path class="cls-1" d="M36.37,143.53a8.84,8.84,0,0,0-3.08-2,11.1,11.1,0,0,0-7.76,0,8.84,8.84,0,0,0-3.08,2,9.61,9.61,0,0,0-2,10.45,9.23,9.23,0,0,0,2.07,3,9.42,9.42,0,0,0,3.1,2,10.92,10.92,0,0,0,7.72,0,9,9,0,0,0,3.06-2,9.3,9.3,0,0,0,2.05-3,9.87,9.87,0,0,0,0-7.45A9.24,9.24,0,0,0,36.37,143.53Zm-2.55,9.54A4.42,4.42,0,0,1,32.07,155a5.22,5.22,0,0,1-2.66.66,5.47,5.47,0,0,1-2.06-.37,4.4,4.4,0,0,1-1.61-1.08,4.56,4.56,0,0,1-1-1.69,6.47,6.47,0,0,1-.35-2.22,5.86,5.86,0,0,1,.63-2.79,4.49,4.49,0,0,1,1.76-1.85,5.12,5.12,0,0,1,2.64-.66,5.44,5.44,0,0,1,2.06.38,4.24,4.24,0,0,1,1.59,1.08,4.77,4.77,0,0,1,1,1.68,6.44,6.44,0,0,1,.34,2.16A6.26,6.26,0,0,1,33.82,153.07Z"/><polygon class="cls-1" points="54.77 151.51 46.6 141.18 43.39 141.18 43.39 159.39 47.99 159.39 47.99 149.29 55.95 159.39 59.37 159.39 59.37 141.18 54.77 141.18 54.77 151.51"/><polygon class="cls-1" points="69.13 151.99 77.12 151.99 77.12 148.22 69.13 148.22 69.13 145.06 77.91 145.06 77.91 141.18 69.13 141.18 68.18 141.18 64.53 141.18 64.53 159.39 68.18 159.39 69.13 159.39 78.04 159.39 78.04 155.51 69.13 155.51 69.13 151.99"/><path class="cls-1" d="M93.6,155.19a5.83,5.83,0,0,1-2.25.4,5.17,5.17,0,0,1-2-.39,4.36,4.36,0,0,1-1.58-1.08,4.86,4.86,0,0,1-1-1.67,6.08,6.08,0,0,1-.37-2.2,6,6,0,0,1,.37-2.16,5,5,0,0,1,1-1.67,4.51,4.51,0,0,1,1.59-1.07,5.41,5.41,0,0,1,2-.37,5.62,5.62,0,0,1,2.21.41,4.78,4.78,0,0,1,1.62,1.13l3.08-3.11a9.86,9.86,0,0,0-3-1.86,10.56,10.56,0,0,0-3.88-.68,10,10,0,0,0-3.84.72,9.7,9.7,0,0,0-3.08,2,8.6,8.6,0,0,0-2.05,3,9.92,9.92,0,0,0,0,7.47,9,9,0,0,0,2,3,9.54,9.54,0,0,0,3.1,2,10.11,10.11,0,0,0,3.85.72,10.51,10.51,0,0,0,3.94-.68,10.74,10.74,0,0,0,3-1.86l-3.08-3.09A5.05,5.05,0,0,1,93.6,155.19Z"/><polygon class="cls-1" points="101.11 145.13 106.66 145.13 106.66 159.39 111.26 159.39 111.26 145.13 116.86 145.13 116.86 141.18 101.11 141.18 101.11 145.13"/><polygon class="cls-1" points="126.59 141.18 119.5 159.39 124.25 159.39 128.77 146.45 133.22 159.39 138.05 159.39 131.04 141.18 126.59 141.18"/><polygon class="cls-1" points="153.23 151.51 145.06 141.18 141.85 141.18 141.85 159.39 146.45 159.39 146.45 149.29 154.41 159.39 157.83 159.39 157.83 141.18 153.23 141.18 153.23 151.51"/><path class="cls-1" d="M177.48,143.69a9.24,9.24,0,0,0-3.09-1.86,11.4,11.4,0,0,0-3.9-.65H163v18.21h7.56a11.19,11.19,0,0,0,3.85-.65,9.16,9.16,0,0,0,3.08-1.87,8.27,8.27,0,0,0,2-2.89,9.89,9.89,0,0,0,0-7.41A8.51,8.51,0,0,0,177.48,143.69Zm-2.57,9.39a4,4,0,0,1-1.77,1.76,5.71,5.71,0,0,1-2.67.59h-2.88v-10.3h2.88a5.53,5.53,0,0,1,2.66.61,4.28,4.28,0,0,1,1.77,1.73,5.63,5.63,0,0,1,.63,2.78A6,6,0,0,1,174.91,153.08Z"/><path class="cls-1" d="M202.31,146.55a9.37,9.37,0,0,0-2-3,8.88,8.88,0,0,0-3.09-2,11.08,11.08,0,0,0-7.75,0,8.88,8.88,0,0,0-3.09,2,9.61,9.61,0,0,0-2,10.45,9.23,9.23,0,0,0,2.07,3,9.53,9.53,0,0,0,3.1,2,10.92,10.92,0,0,0,7.72,0,9.19,9.19,0,0,0,3.07-2,9.67,9.67,0,0,0,2-10.46Zm-4.6,6.52A4.36,4.36,0,0,1,196,155a5.19,5.19,0,0,1-2.65.66,5.49,5.49,0,0,1-2.07-.37,4.48,4.48,0,0,1-1.61-1.08,4.7,4.7,0,0,1-1-1.69,6.71,6.71,0,0,1-.35-2.22,5.86,5.86,0,0,1,.63-2.79,4.55,4.55,0,0,1,1.76-1.85,5.13,5.13,0,0,1,2.65-.66,5.42,5.42,0,0,1,2.05.38,4.17,4.17,0,0,1,1.59,1.08,4.63,4.63,0,0,1,1,1.68,6.44,6.44,0,0,1,.34,2.16A6.26,6.26,0,0,1,197.71,153.07Z"/><path class="cls-2" d="M225.17,141.87a7.07,7.07,0,0,0-3.17-.69h-8v18.21h4.6v-6.5H222a6.82,6.82,0,0,0,3.17-.71,5.52,5.52,0,0,0,2.22-2,6.46,6.46,0,0,0,0-6.3A5.43,5.43,0,0,0,225.17,141.87Zm-1.84,6.49a2,2,0,0,1-.88.82,2.76,2.76,0,0,1-1.22.27h-2.65v-4.86h2.65a2.64,2.64,0,0,1,1.22.29,2.17,2.17,0,0,1,.88.82,2.41,2.41,0,0,1,.34,1.33A2.46,2.46,0,0,1,223.33,148.36Z"/><polygon class="cls-2" points="243.34 141.18 243.34 148.14 236.79 148.14 236.79 141.18 232.2 141.18 232.2 159.39 236.79 159.39 236.79 152.02 243.34 152.02 243.34 159.39 247.94 159.39 247.94 141.18 243.34 141.18"/><path class="cls-3" d="M174.19,23.71a5,5,0,0,0-6.33-6.65,65,65,0,1,0,6.33,6.65ZM107.72,65.05a5,5,0,0,0,0-9V37.84l14.17-9.93V126a60.72,60.72,0,0,1-14.17-2.17Zm18.33-37.14,14.18,9.93v18.7l-14.18-9.93Zm28.74,47.34v42.39a60.52,60.52,0,0,1-10.4,4.87v-58L152,69.84a5.27,5.27,0,0,0-.09.89A5,5,0,0,0,154.79,75.25Zm-14.56,48.57A60.81,60.81,0,0,1,126.05,126V51.69l14.18,9.93ZM159,115V75.24a5,5,0,0,0-2.09-9.48,5,5,0,0,0-2.5.67l-10-7V36.75a2.06,2.06,0,0,0-.89-1.7L125.17,22.21l-.12-.06-.12-.08a.58.58,0,0,0-.14-.05l-.27-.1-.27-.06H124a1.37,1.37,0,0,0-.28,0l-.27.05-.27.1a1.21,1.21,0,0,0-.14.05l-.11.08a.67.67,0,0,0-.12.06L104.44,35.05a2.06,2.06,0,0,0-.89,1.7V56a5,5,0,0,0-2.89,4.51,5.14,5.14,0,0,0,.08.88L89.88,69A2.08,2.08,0,0,0,89,70.73v25a5,5,0,1,0,4.17,0v-24l10-7,.42.22v57.46A60.93,60.93,0,1,1,165,20a4.83,4.83,0,0,0-.29,1.66,5,5,0,0,0,5,5,4.78,4.78,0,0,0,1.42-.21A60.85,60.85,0,0,1,159,115Z"/></g></g></svg>