<svg xmlns="http://www.w3.org/2000/svg" viewBox="0 0 39.71 47.18"><defs><style>.cls-1{fill:#715926;}.cls-2{fill:#fff2d6;}.cls-3{fill:#987838;}</style></defs><g id="Capa_2" data-name="Capa 2"><g id="Capa_1-2" data-name="Capa 1"><path class="cls-1" d="M9.49,47.08V40.53h.89v6.55Z"/><path class="cls-1" d="M11.87,47.08V42.6h.85v4.48Zm3.17,0V44.47a1.17,1.17,0,0,0-.32-.84,1.11,1.11,0,0,0-.83-.34,1.19,1.19,0,0,0-.6.16,1.1,1.1,0,0,0-.42.41,1.23,1.23,0,0,0-.15.61l-.35-.2a1.84,1.84,0,0,1,.23-.91,1.73,1.73,0,0,1,.63-.63,1.87,1.87,0,0,1,.92-.23,1.61,1.61,0,0,1,.9.26,1.87,1.87,0,0,1,.62.66,1.83,1.83,0,0,1,.23.88v2.78Z"/><path class="cls-1" d="M17.58,41.7a.5.5,0,0,1-.39-.16.53.53,0,0,1-.15-.39.52.52,0,0,1,.15-.38.5.5,0,0,1,.39-.16.51.51,0,0,1,.39.16.52.52,0,0,1,.15.38.53.53,0,0,1-.15.39A.51.51,0,0,1,17.58,41.7Zm-.44,5.38V42.6H18v4.48Z"/><path class="cls-1" d="M21.41,47.18a2.31,2.31,0,0,1-1.2-.31,2.21,2.21,0,0,1-.84-.85,2.26,2.26,0,0,1-.31-1.18,2.31,2.31,0,0,1,.31-1.2,2.16,2.16,0,0,1,.84-.83,2.31,2.31,0,0,1,1.2-.31,2.57,2.57,0,0,1,1,.19,2,2,0,0,1,.76.57l-.56.56a1.46,1.46,0,0,0-.51-.37,1.75,1.75,0,0,0-.65-.13,1.46,1.46,0,0,0-.76.2,1.39,1.39,0,0,0-.52.53,1.72,1.72,0,0,0,0,1.57,1.42,1.42,0,0,0,.52.54,1.46,1.46,0,0,0,.76.2,1.71,1.71,0,0,0,.65-.13,1.59,1.59,0,0,0,.52-.37l.55.56a2,2,0,0,1-.76.56A2.39,2.39,0,0,1,21.41,47.18Z"/><path class="cls-1" d="M24.51,41.7a.5.5,0,0,1-.39-.16.53.53,0,0,1-.15-.39.52.52,0,0,1,.15-.38.5.5,0,0,1,.39-.16.49.49,0,0,1,.38.16.52.52,0,0,1,.15.38.53.53,0,0,1-.15.39A.49.49,0,0,1,24.51,41.7Zm-.44,5.38V42.6h.86v4.48Z"/><path class="cls-1" d="M28.32,47.18a2.26,2.26,0,0,1-1.18-.31A2.36,2.36,0,0,1,26.3,46,2.27,2.27,0,0,1,26,44.83a2.24,2.24,0,0,1,.31-1.18,2.41,2.41,0,0,1,.84-.84,2.36,2.36,0,0,1,1.18-.31,2.33,2.33,0,0,1,1.2.31,2.23,2.23,0,0,1,.84.83,2.31,2.31,0,0,1,.32,1.19,2.37,2.37,0,0,1-1.16,2A2.33,2.33,0,0,1,28.32,47.18Zm0-.82a1.5,1.5,0,0,0,.77-.2,1.38,1.38,0,0,0,.52-.55,1.64,1.64,0,0,0,.19-.78,1.56,1.56,0,0,0-.2-.78,1.33,1.33,0,0,0-.52-.53,1.51,1.51,0,0,0-1.5,0,1.33,1.33,0,0,0-.52.53,1.55,1.55,0,0,0-.19.78,1.53,1.53,0,0,0,.19.78,1.32,1.32,0,0,0,.52.55A1.44,1.44,0,0,0,28.32,46.36Z"/><polygon class="cls-2" points="19.86 5.97 6.52 17.91 6.52 33.15 16.41 33.15 16.41 24.48 23.3 24.48 23.3 33.15 33.19 33.15 33.19 17.91 19.86 5.97"/><path class="cls-3" d="M33.19,33.81H23.3a.66.66,0,0,1-.66-.66v-8H17.07v8a.66.66,0,0,1-.66.66H6.52a.65.65,0,0,1-.66-.66V17.91a.64.64,0,0,1,.22-.49L19.41,5.48a.66.66,0,0,1,.89,0L33.63,17.42a.64.64,0,0,1,.22.49V33.15A.65.65,0,0,1,33.19,33.81ZM24,32.49h8.57V18.2L19.85,6.86,7.18,18.2V32.49h8.57v-8a.65.65,0,0,1,.66-.66H23.3a.65.65,0,0,1,.66.66Z"/><polygon class="cls-2" points="3.87 20.24 4.75 19.45 18.09 7.51 19.86 5.93 21.62 7.51 34.96 19.45 35.84 20.24 39.05 17.39 19.85 0.66 10.83 8.51 10.83 3.49 6.66 3.49 6.66 12.14 0.66 17.39 3.87 20.24"/><path class="cls-3" d="M35.84,20.9a.66.66,0,0,1-.44-.17L19.85,6.82,4.31,20.73a.65.65,0,0,1-.88,0L.22,17.88A.64.64,0,0,1,0,17.39a.66.66,0,0,1,.23-.5L6,11.84V3.49a.65.65,0,0,1,.66-.66h4.17a.66.66,0,0,1,.66.66V7.06L19.41.16a.68.68,0,0,1,.87,0l19.2,16.73a.66.66,0,0,1,.23.5.68.68,0,0,1-.22.5l-3.21,2.84A.67.67,0,0,1,35.84,20.9Zm-16-15.63a.69.69,0,0,1,.45.16L35.84,19.35l2.2-2L19.85,1.54,11.26,9a.66.66,0,0,1-.71.1.66.66,0,0,1-.38-.6V4.15H7.32v8a.66.66,0,0,1-.23.5L1.66,17.39l2.21,2L19.41,5.43A.68.68,0,0,1,19.85,5.27Z"/></g></g></svg>