<svg xmlns="http://www.w3.org/2000/svg" viewBox="0 0 59.3 45.6"><defs><style>.cls-1{fill:#715926;}.cls-2{fill:#fff2d6;}.cls-3{fill:#987838;}</style></defs><g id="Capa_2" data-name="Capa 2"><g id="Capa_1-2" data-name="Capa 1"><path class="cls-1" d="M0,45.51V39H.62l.27,1v5.52Zm4.54,0-4-5.37L.62,39l4,5.37Zm0,0-.27-1V39h.89v6.56Z"/><path class="cls-1" d="M8.69,45.6a2.29,2.29,0,0,1-1.18-.31,2.31,2.31,0,0,1-1.15-2,2.2,2.2,0,0,1,.31-1.17,2.41,2.41,0,0,1,.84-.84,2.29,2.29,0,0,1,1.18-.31,2.43,2.43,0,0,1,1.2.3,2.29,2.29,0,0,1,1.16,2,2.44,2.44,0,0,1-.31,1.2,2.28,2.28,0,0,1-.85.84A2.33,2.33,0,0,1,8.69,45.6Zm0-.82a1.41,1.41,0,0,0,.77-.2A1.42,1.42,0,0,0,10,44a1.57,1.57,0,0,0,.19-.79,1.5,1.5,0,0,0-.2-.77,1.4,1.4,0,0,0-.51-.54,1.49,1.49,0,0,0-.77-.19,1.43,1.43,0,0,0-.74.19,1.35,1.35,0,0,0-.52.54,1.49,1.49,0,0,0-.19.77,1.57,1.57,0,0,0,.19.79,1.42,1.42,0,0,0,1.26.74Z"/><path class="cls-1" d="M11.48,41.8V41h3.06v.78Zm1.11,3.71V39.14h.85v6.37Z"/><path class="cls-1" d="M15.9,40.12a.52.52,0,0,1-.38-.15.56.56,0,0,1-.15-.39.54.54,0,0,1,.15-.39A.52.52,0,0,1,15.9,39a.53.53,0,0,1,.39.15.54.54,0,0,1,.15.39.56.56,0,0,1-.15.39A.53.53,0,0,1,15.9,40.12Zm-.43,5.39V41h.86v4.49Z"/><path class="cls-1" d="M17.22,41.8V41h4.26v.78Zm1.09,3.71v-5.3a1.57,1.57,0,0,1,.2-.79,1.5,1.5,0,0,1,1.35-.75,1.49,1.49,0,0,1,.62.12,1.73,1.73,0,0,1,.49.32l-.57.57a.78.78,0,0,0-.24-.16.94.94,0,0,0-.3-.05.66.66,0,0,0-.51.2.77.77,0,0,0-.18.54v5.3Zm3.1-5a.47.47,0,0,1-.37-.16.53.53,0,0,1-.16-.39.53.53,0,0,1,.16-.38.47.47,0,0,1,.37-.16.51.51,0,0,1,.4.16A.56.56,0,0,1,22,40a.56.56,0,0,1-.14.39A.51.51,0,0,1,21.41,40.55Zm-.42,5V41h.86v4.49Z"/><path class="cls-1" d="M25.24,45.6a2.27,2.27,0,0,1-1.19-.31,2.19,2.19,0,0,1-.84-.84,2.3,2.3,0,0,1-.31-1.19,2.31,2.31,0,0,1,1.15-2,2.36,2.36,0,0,1,1.19-.3,2.4,2.4,0,0,1,1,.19,2.21,2.21,0,0,1,.76.56l-.57.57a1.2,1.2,0,0,0-.51-.37,1.57,1.57,0,0,0-.65-.13,1.44,1.44,0,0,0-.75.19,1.29,1.29,0,0,0-.52.54,1.5,1.5,0,0,0-.19.78,1.57,1.57,0,0,0,.19.79,1.32,1.32,0,0,0,.52.53,1.36,1.36,0,0,0,.75.2,1.59,1.59,0,0,0,.66-.13,1.24,1.24,0,0,0,.51-.37l.56.57a2.24,2.24,0,0,1-.76.56A2.4,2.4,0,0,1,25.24,45.6Z"/><path class="cls-1" d="M29.74,45.6a2.11,2.11,0,0,1-1.12-.3,2.25,2.25,0,0,1-.78-.84,2.59,2.59,0,0,1,0-2.38,2.25,2.25,0,0,1,.78-.84,2,2,0,0,1,1.12-.31,1.94,1.94,0,0,1,.91.21,1.76,1.76,0,0,1,.65.59,1.72,1.72,0,0,1,.27.86v1.35a1.78,1.78,0,0,1-.27.86,1.65,1.65,0,0,1-.64.59A2,2,0,0,1,29.74,45.6Zm.14-.8a1.3,1.3,0,0,0,1-.43,1.56,1.56,0,0,0,.39-1.1,1.71,1.71,0,0,0-.18-.8,1.27,1.27,0,0,0-.5-.55,1.52,1.52,0,0,0-1.49,0,1.33,1.33,0,0,0-.51.54,1.67,1.67,0,0,0-.18.79,1.71,1.71,0,0,0,.18.8,1.33,1.33,0,0,0,.51.54A1.42,1.42,0,0,0,29.88,44.8Zm1.35.71V44.3l.16-1.1-.16-1.08V41h.86v4.49Z"/><path class="cls-1" d="M35.48,45.6a2.31,2.31,0,0,1-1.2-.31,2.19,2.19,0,0,1-.84-.84,2.3,2.3,0,0,1-.31-1.19,2.31,2.31,0,0,1,1.15-2,2.54,2.54,0,0,1,2.16-.11,2.12,2.12,0,0,1,.76.56l-.56.57a1.34,1.34,0,0,0-.51-.37,1.57,1.57,0,0,0-.65-.13,1.45,1.45,0,0,0-.76.19,1.42,1.42,0,0,0-.52.54,1.5,1.5,0,0,0-.19.78,1.57,1.57,0,0,0,.19.79,1.47,1.47,0,0,0,.52.53,1.37,1.37,0,0,0,.76.2,1.57,1.57,0,0,0,.65-.13,1.35,1.35,0,0,0,.52-.37l.55.57a2.15,2.15,0,0,1-.76.56A2.38,2.38,0,0,1,35.48,45.6Z"/><path class="cls-1" d="M38.58,40.12a.53.53,0,0,1-.39-.15.56.56,0,0,1-.15-.39.54.54,0,0,1,.15-.39.53.53,0,0,1,.39-.15.52.52,0,0,1,.38.15.54.54,0,0,1,.15.39A.56.56,0,0,1,39,40,.52.52,0,0,1,38.58,40.12Zm-.44,5.39V41H39v4.49Z"/><path class="cls-1" d="M42.39,45.6a2.26,2.26,0,0,1-1.18-.31,2.31,2.31,0,0,1-1.15-2,2.2,2.2,0,0,1,.31-1.17,2.41,2.41,0,0,1,.84-.84,2.26,2.26,0,0,1,1.18-.31,2.43,2.43,0,0,1,1.2.3,2.33,2.33,0,0,1,.84.84,2.27,2.27,0,0,1,.32,1.18,2.34,2.34,0,0,1-.32,1.2,2.26,2.26,0,0,1-.84.84A2.33,2.33,0,0,1,42.39,45.6Zm0-.82a1.41,1.41,0,0,0,.77-.2,1.42,1.42,0,0,0,.52-.54,1.68,1.68,0,0,0,.19-.79,1.5,1.5,0,0,0-.2-.77,1.5,1.5,0,0,0-2-.54,1.35,1.35,0,0,0-.52.54,1.49,1.49,0,0,0-.19.77,1.57,1.57,0,0,0,.19.79,1.42,1.42,0,0,0,1.26.74Z"/><path class="cls-1" d="M45.79,45.51V41h.85v4.49Zm3.16,0V42.89a1.13,1.13,0,0,0-.32-.84,1.08,1.08,0,0,0-.82-.33,1.23,1.23,0,0,0-.61.15,1.1,1.1,0,0,0-.41.42,1.19,1.19,0,0,0-.15.6l-.35-.2a1.77,1.77,0,0,1,.22-.9,1.68,1.68,0,0,1,.64-.63,1.74,1.74,0,0,1,.91-.23,1.66,1.66,0,0,1,.91.25,1.79,1.79,0,0,1,.61.67,1.67,1.67,0,0,1,.23.87v2.79Z"/><path class="cls-1" d="M53.14,45.6a2.45,2.45,0,0,1-1.22-.3,2.41,2.41,0,0,1-.84-.84,2.28,2.28,0,0,1-.31-1.2,2.26,2.26,0,0,1,2.31-2.33,2.12,2.12,0,0,1,1.1.28,2,2,0,0,1,.75.78,2.41,2.41,0,0,1,.27,1.15c0,.06,0,.13,0,.2s0,.15,0,.24H51.36v-.71H54.7l-.32.28a1.63,1.63,0,0,0-.16-.77,1.07,1.07,0,0,0-.45-.49,1.31,1.31,0,0,0-.71-.18,1.45,1.45,0,0,0-.76.19,1.3,1.3,0,0,0-.51.53,1.69,1.69,0,0,0-.18.8,1.81,1.81,0,0,0,.18.83,1.36,1.36,0,0,0,.54.55,1.64,1.64,0,0,0,.81.19,1.73,1.73,0,0,0,.69-.13,1.53,1.53,0,0,0,.55-.4l.54.56a2.28,2.28,0,0,1-.79.58A2.53,2.53,0,0,1,53.14,45.6Z"/><path class="cls-1" d="M57.65,45.6a2.37,2.37,0,0,1-.72-.1,2.19,2.19,0,0,1-1.11-.72l.55-.55a1.36,1.36,0,0,0,.57.45,1.66,1.66,0,0,0,.72.15,1.17,1.17,0,0,0,.61-.14.44.44,0,0,0,.22-.38.45.45,0,0,0-.18-.38,1.46,1.46,0,0,0-.45-.23c-.18-.06-.37-.12-.58-.17a3.69,3.69,0,0,1-.58-.23,1.41,1.41,0,0,1-.45-.39,1.12,1.12,0,0,1-.17-.66,1.22,1.22,0,0,1,.19-.7,1.19,1.19,0,0,1,.55-.46,2.06,2.06,0,0,1,.86-.16,2.28,2.28,0,0,1,.94.18,1.66,1.66,0,0,1,.68.55l-.55.55a1.43,1.43,0,0,0-.47-.38,1.52,1.52,0,0,0-.62-.13,1.09,1.09,0,0,0-.57.13.41.41,0,0,0-.19.35.4.4,0,0,0,.17.35,1.35,1.35,0,0,0,.45.21l.58.18a3.23,3.23,0,0,1,.58.24,1.21,1.21,0,0,1,.44.4,1.15,1.15,0,0,1,.18.67,1.24,1.24,0,0,1-.45,1A1.87,1.87,0,0,1,57.65,45.6Z"/><path class="cls-2" d="M33.94,27.07a.69.69,0,0,0-.52-.24h-8a.66.66,0,0,0-.51.24.68.68,0,0,0-.16.55,4.73,4.73,0,0,0,9.33,0A.67.67,0,0,0,33.94,27.07Z"/><path class="cls-3" d="M29.43,32.24a5.37,5.37,0,0,1-5.32-4.52,1.37,1.37,0,0,1,.3-1.08,1.35,1.35,0,0,1,1-.47h8a1.35,1.35,0,0,1,1.33,1.55A5.37,5.37,0,0,1,29.43,32.24Zm4-4.75h-8a4.06,4.06,0,0,0,8,0h0Z"/><path class="cls-2" d="M29.23,1.34h0"/><path class="cls-3" d="M29.24,2a.67.67,0,0,1-.67-.66.65.65,0,0,1,.66-.66h0a.66.66,0,1,1,0,1.32Z"/><polygon class="cls-2" points="29.24 2.01 29.23 0.66 29.24 0.66 29.24 2.01"/><path class="cls-3" d="M29.24,2.67A.66.66,0,0,1,28.58,2V.67A.59.59,0,0,1,28.76.2a.63.63,0,0,1,.47-.2.67.67,0,0,1,.67.66V2a.65.65,0,0,1-.66.66Z"/><path class="cls-2" d="M42.54,19.07a.68.68,0,0,0-.37-.6c-.05,0-4.94-2.64-4.94-9.86,0-.06.18-5.87-4.79-7.49A10.35,10.35,0,0,0,29.59.67h-.33a10.35,10.35,0,0,0-2.85.45c-5,1.62-4.78,7.43-4.78,7.46,0,7.21-4.75,9.79-4.95,9.89a.69.69,0,0,0-.36.6c0,2.72,0,4.81,0,4.81a.66.66,0,0,0,.19.48.67.67,0,0,0,.48.2H41.87a.66.66,0,0,0,.48-.2.67.67,0,0,0,.2-.48S42.54,21.79,42.54,19.07Z"/><path class="cls-3" d="M41.87,25.22H17a1.33,1.33,0,0,1-1.34-1.34c0-.08,0-2.15,0-4.81a1.34,1.34,0,0,1,.72-1.19c.18-.09,4.58-2.48,4.58-9.3,0-.23-.13-6.33,5.25-8.09A10.92,10.92,0,0,1,29.15,0h.56a11,11,0,0,1,2.94.48C38,2.25,37.9,8.37,37.89,8.63c0,6.72,4.54,9.23,4.59,9.26a1.33,1.33,0,0,1,.72,1.18c0,2.66,0,4.73,0,4.81a1.35,1.35,0,0,1-.38.95A1.38,1.38,0,0,1,41.87,25.22ZM29.35,1.33h-.07a10,10,0,0,0-2.66.42c-4.44,1.45-4.34,6.6-4.33,6.81,0,7.63-5.08,10.39-5.3,10.5,0,2.68,0,4.75,0,4.82l24.9,0c0-.09,0-2.16,0-4.83h0s-5.3-2.79-5.3-10.45c0-.24.11-5.41-4.34-6.86a9.91,9.91,0,0,0-2.66-.42h-.22Z"/></g></g></svg>