<svg xmlns="http://www.w3.org/2000/svg" viewBox="0 0 44.89 49.4"><defs><style>.cls-1{fill:#715926;}.cls-2{fill:#fff2d6;}.cls-2,.cls-4{fill-rule:evenodd;}.cls-3{fill:#987838;}.cls-4{fill:#ab8b48;}</style></defs><g id="Capa_2" data-name="Capa 2"><g id="Capa_1-2" data-name="Capa 1"><path class="cls-1" d="M2.14,47.52,0,41H.89l1.7,5.34H2.33L4,41h.64l1.67,5.34H6.08L7.78,41h.88L6.52,47.52H5.89L4.21,42.19h.24L2.78,47.52Z"/><path class="cls-1" d="M9.69,47.52V40.78h.85v6.74Zm3.16,0V44.91a1.16,1.16,0,0,0-.31-.84,1.09,1.09,0,0,0-.83-.34,1.23,1.23,0,0,0-.61.16,1.15,1.15,0,0,0-.41.41,1.23,1.23,0,0,0-.15.61l-.35-.2a1.8,1.8,0,0,1,2.68-1.54,1.7,1.7,0,0,1,.62.63,1.89,1.89,0,0,1,.22.94v2.78Z"/><path class="cls-1" d="M16.87,47.62a2,2,0,0,1-1.12-.31,2.25,2.25,0,0,1-.79-.83,2.69,2.69,0,0,1,0-2.39,2.36,2.36,0,0,1,.79-.84,2.12,2.12,0,0,1,1.12-.31,1.94,1.94,0,0,1,.91.21,1.84,1.84,0,0,1,.65.59,1.78,1.78,0,0,1,.27.86V46a1.82,1.82,0,0,1-.27.86,1.73,1.73,0,0,1-.64.59A2,2,0,0,1,16.87,47.62Zm.14-.8a1.33,1.33,0,0,0,1-.43,1.6,1.6,0,0,0,.39-1.11,1.71,1.71,0,0,0-.18-.8,1.37,1.37,0,0,0-.5-.54,1.39,1.39,0,0,0-.74-.2,1.45,1.45,0,0,0-.75.2,1.42,1.42,0,0,0-.51.55,1.74,1.74,0,0,0,0,1.58,1.42,1.42,0,0,0,.51.55A1.49,1.49,0,0,0,17,46.82Zm1.35.7V46.31l.16-1.09-.16-1.09V43h.86v4.48Z"/><path class="cls-1" d="M20.06,43.81V43h3.06v.77Zm1.11,3.71V41.16H22v6.36Z"/><path class="cls-1" d="M25.38,47.62a2.46,2.46,0,0,1-.72-.1,2.43,2.43,0,0,1-.61-.28,2.3,2.3,0,0,1-.49-.44l.55-.55a1.59,1.59,0,0,0,.56.45,1.71,1.71,0,0,0,.72.14,1.19,1.19,0,0,0,.62-.13.44.44,0,0,0,.21-.39.44.44,0,0,0-.17-.38,1.58,1.58,0,0,0-.45-.23L25,45.54a2.7,2.7,0,0,1-.58-.23,1.13,1.13,0,0,1-.45-.39,1.1,1.1,0,0,1-.18-.66,1.23,1.23,0,0,1,.75-1.16,2.06,2.06,0,0,1,.86-.16,2.16,2.16,0,0,1,.94.19,1.65,1.65,0,0,1,.68.55l-.55.55a1.32,1.32,0,0,0-.47-.38,1.45,1.45,0,0,0-.63-.13,1,1,0,0,0-.56.13.4.4,0,0,0-.19.35.39.39,0,0,0,.17.35,1.39,1.39,0,0,0,.44.2l.59.18a2.87,2.87,0,0,1,.57.24,1.19,1.19,0,0,1,.45.41,1.13,1.13,0,0,1,.18.67,1.23,1.23,0,0,1-.45,1A1.82,1.82,0,0,1,25.38,47.62Z"/><path class="cls-1" d="M27.75,47.52,30.44,41h.64l2.68,6.55h-1L30.58,42h.34L28.7,47.52ZM29,46v-.77h3.45V46Z"/><path class="cls-1" d="M34.76,49.4V43h.85v1.18l-.16,1.08.16,1.1v3Zm2.36-1.78a2,2,0,0,1-.92-.21,1.79,1.79,0,0,1-.66-.59,1.82,1.82,0,0,1-.27-.86V44.6a1.69,1.69,0,0,1,.28-.86,1.72,1.72,0,0,1,.66-.59,2,2,0,0,1,.91-.21,2.11,2.11,0,0,1,1.11.31,2.25,2.25,0,0,1,.78.84,2.69,2.69,0,0,1,0,2.39,2.15,2.15,0,0,1-.78.83A2,2,0,0,1,37.12,47.62Zm-.14-.8a1.39,1.39,0,0,0,.74-.2,1.42,1.42,0,0,0,.51-.55,1.74,1.74,0,0,0,0-1.58,1.42,1.42,0,0,0-.51-.55,1.39,1.39,0,0,0-.74-.2,1.41,1.41,0,0,0-.74.2,1.47,1.47,0,0,0-.5.55,1.82,1.82,0,0,0,0,1.58,1.32,1.32,0,0,0,.5.55A1.39,1.39,0,0,0,37,46.82Z"/><path class="cls-1" d="M40.35,49.4V43h.85v1.18L41,45.3l.16,1.1v3Zm2.36-1.78a2,2,0,0,1-.92-.21,1.76,1.76,0,0,1-.65-.59,1.72,1.72,0,0,1-.28-.86V44.6a1.69,1.69,0,0,1,.28-.86,1.88,1.88,0,0,1,.66-.59,2,2,0,0,1,.91-.21,2.12,2.12,0,0,1,1.89,1.15,2.61,2.61,0,0,1,0,2.39,2.13,2.13,0,0,1-1.89,1.14Zm-.14-.8a1.42,1.42,0,0,0,.75-.2,1.47,1.47,0,0,0,.5-.55,1.74,1.74,0,0,0,0-1.58,1.47,1.47,0,0,0-.5-.55,1.49,1.49,0,0,0-1.49,0,1.47,1.47,0,0,0-.5.55,1.82,1.82,0,0,0,0,1.58,1.39,1.39,0,0,0,.5.55A1.41,1.41,0,0,0,42.57,46.82Z"/><path class="cls-2" d="M39.05,17.13A16.62,16.62,0,0,1,14.44,31.54l-6.8,1.74A.94.94,0,0,1,6.5,32.13l1.75-6.5a16.29,16.29,0,0,1-2.38-8.5,16.59,16.59,0,0,1,33.18,0Z"/><path class="cls-3" d="M22.46,34.25a17.37,17.37,0,0,1-8.1-2L7.8,33.93a1.59,1.59,0,0,1-1.53-.43A1.62,1.62,0,0,1,5.86,32l1.68-6.23a17,17,0,0,1-2.33-8.6A17.26,17.26,0,1,1,22.46,34.25Zm-8-3.37a.72.72,0,0,1,.32.08A16,16,0,0,0,38.39,17.13a15.93,15.93,0,0,0-31.86,0,15.6,15.6,0,0,0,2.29,8.15.68.68,0,0,1,.07.52L7.14,32.31a.27.27,0,0,0,.07.26.26.26,0,0,0,.27.07l6.8-1.74Z"/><path class="cls-4" d="M30.67,20.83c-.1-.17-.38-.27-.78-.47S27.48,19.18,27.11,19s-.65-.2-.92.2-1.05,1.32-1.28,1.59-.48.3-.88.1a11.2,11.2,0,0,1-3.28-2,12.81,12.81,0,0,1-2.26-2.8c-.24-.4,0-.62.18-.82s.41-.47.61-.71a2.87,2.87,0,0,0,.41-.67.76.76,0,0,0,0-.71c-.1-.2-.91-2.19-1.25-3s-.68-.77-.92-.77a5.92,5.92,0,0,0-.67.07,2.31,2.31,0,0,0-1.19.5,4.54,4.54,0,0,0-1.42,3.37,7.77,7.77,0,0,0,1.66,4.17c.2.27,2.81,4.48,6.94,6.09s4.14,1.08,4.88,1a4.06,4.06,0,0,0,2.75-1.92,3.34,3.34,0,0,0,.24-1.91Z"/></g></g></svg>