<svg xmlns="http://www.w3.org/2000/svg" viewBox="0 0 34.57 49.72"><defs><style>.cls-1{fill:#715926;}.cls-2{fill:#fff2d6;}.cls-3{fill:#987838;}.cls-4{fill:#ab8b48;}</style></defs><g id="Capa_2" data-name="Capa 2"><g id="Capa_1-2" data-name="Capa 1"><path class="cls-1" d="M4,47.84l2.69-6.56h.65L10,47.84H9L6.8,42.3h.34L4.92,47.84Zm1.28-1.48v-.78H8.7v.78Z"/><path class="cls-1" d="M12,47.88,10,43.35H11l1.45,3.55h-.3l1.52-3.55h.94l-2.09,4.53Zm-1.28,1.84L12,47l.49.87-.86,1.84Z"/><path class="cls-1" d="M17.26,47.92a2.05,2.05,0,0,1-1-.24,1.76,1.76,0,0,1-.69-.69,2.12,2.12,0,0,1-.24-1V43.35h.85v2.57a1.41,1.41,0,0,0,.13.64.87.87,0,0,0,.37.41,1.09,1.09,0,0,0,.58.14A1,1,0,0,0,18,46.8a1.26,1.26,0,0,0,.28-.88V43.35h.86V46a2.12,2.12,0,0,1-.25,1,1.67,1.67,0,0,1-.68.69A2,2,0,0,1,17.26,47.92Z"/><path class="cls-1" d="M22.3,47.94a2,2,0,0,1-1.1-.31,2.18,2.18,0,0,1-.78-.84,2.59,2.59,0,0,1,0-2.38,2.25,2.25,0,0,1,.78-.84,2.11,2.11,0,0,1,2-.1,1.79,1.79,0,0,1,.66.59,1.65,1.65,0,0,1,.27.86v1.35a1.68,1.68,0,0,1-.27.86,1.61,1.61,0,0,1-.65.59A1.88,1.88,0,0,1,22.3,47.94Zm.14-.81a1.32,1.32,0,0,0,.75-.2,1.37,1.37,0,0,0,.5-.54,1.67,1.67,0,0,0,.18-.79,1.71,1.71,0,0,0-.18-.8,1.37,1.37,0,0,0-.5-.54,1.49,1.49,0,0,0-1.49,0,1.24,1.24,0,0,0-.51.53,1.71,1.71,0,0,0-.18.8,1.76,1.76,0,0,0,.18.81,1.33,1.33,0,0,0,.51.54A1.43,1.43,0,0,0,22.44,47.13Zm2.23.71h-.86V46.63L24,45.54l-.17-1.09V41.09h.86Z"/><path class="cls-1" d="M27.92,47.94a2.12,2.12,0,0,1-1.12-.31,2.2,2.2,0,0,1-.79-.84,2.59,2.59,0,0,1,0-2.38,2.28,2.28,0,0,1,.79-.84,2,2,0,0,1,1.12-.31,1.94,1.94,0,0,1,.91.21,1.7,1.7,0,0,1,.92,1.45v1.35a1.78,1.78,0,0,1-.27.86,1.61,1.61,0,0,1-.65.59A1.83,1.83,0,0,1,27.92,47.94Zm.14-.81a1.3,1.3,0,0,0,1-.43,1.56,1.56,0,0,0,.39-1.1,1.71,1.71,0,0,0-.18-.8,1.31,1.31,0,0,0-.5-.54,1.39,1.39,0,0,0-.74-.2,1.42,1.42,0,0,0-.75.2,1.33,1.33,0,0,0-.51.54,1.76,1.76,0,0,0,0,1.59,1.33,1.33,0,0,0,.51.54A1.37,1.37,0,0,0,28.06,47.13Zm1.35.71V46.63l.16-1.09-.16-1.09v-1.1h.86v4.49Z"/><circle class="cls-2" cx="17.28" cy="17.28" r="16.62"/><path class="cls-3" d="M17.28,34.57A17.29,17.29,0,1,1,34.57,17.28,17.31,17.31,0,0,1,17.28,34.57Zm0-33.25a16,16,0,1,0,16,16A16,16,0,0,0,17.28,1.32Z"/><path class="cls-4" d="M16.94,24.09a1,1,0,0,1-1-1V20.36a4.49,4.49,0,0,1,2.74-4.16,4.72,4.72,0,1,0-5.9-6.63,1,1,0,1,1-1.75-1,6.71,6.71,0,1,1,8.39,9.43,2.46,2.46,0,0,0-1.5,2.31V23.1A1,1,0,0,1,16.94,24.09Z"/><circle class="cls-4" cx="16.81" cy="27.15" r="1.31"/></g></g></svg>