<svg xmlns="http://www.w3.org/2000/svg" viewBox="0 0 34.57 47.38"><defs><style>.cls-1{fill:#fff2d6;}.cls-2{fill:#987838;}.cls-3{fill:#715926;}</style></defs><g id="Capa_2" data-name="Capa 2"><g id="Capa_1-2" data-name="Capa 1"><rect class="cls-1" x="0.66" y="0.66" width="33.24" height="33.24" rx="16.62"/><path class="cls-2" d="M17.28,34.57A17.29,17.29,0,1,1,34.57,17.28,17.3,17.3,0,0,1,17.28,34.57Zm0-33.25a16,16,0,1,0,16,16A16,16,0,0,0,17.28,1.32Z"/><path class="cls-2" d="M17.33,18.89c1.72,0,3.39-2.2,3.64-4.81.14-1.47.15-2.95-.7-3.89a3.81,3.81,0,0,0-2.94-1,3.79,3.79,0,0,0-2.94,1c-.85.94-.84,2.42-.7,3.89C13.94,16.69,15.6,18.89,17.33,18.89Z"/><path class="cls-2" d="M17.42,22a2,2,0,0,0,1.73-1.14l1-2a.31.31,0,0,1,.31-.16c1.43.24,2.87.62,3,.65s1.5.4,1.79,2.62l.23,3a1.69,1.69,0,0,1-1,1.66,16.3,16.3,0,0,1-14.29,0A1.7,1.7,0,0,1,9.23,25l.22-3c.3-2.23,1.63-2.59,1.79-2.63s1.56-.41,3-.65a.29.29,0,0,1,.31.16l1,2a2,2,0,0,0,1.6,1.13Z"/><path class="cls-3" d="M7,47.28V40.72h.89v6.56Zm.6-2.55V44H9.42a1.4,1.4,0,0,0,.66-.15,1.14,1.14,0,0,0,.45-.42,1.35,1.35,0,0,0,0-1.31,1.14,1.14,0,0,0-.45-.42,1.4,1.4,0,0,0-.66-.15H7.64v-.78H9.47a2.33,2.33,0,0,1,1.09.25,1.87,1.87,0,0,1,.76.69,2.05,2.05,0,0,1,.28,1.07,2,2,0,0,1-.28,1.05,1.83,1.83,0,0,1-.76.7,2.33,2.33,0,0,1-1.09.25Z"/><path class="cls-3" d="M14.45,47.38a2.42,2.42,0,0,1-1.21-.31,2.36,2.36,0,0,1-.85-.84,2.28,2.28,0,0,1-.31-1.2,2.36,2.36,0,0,1,.3-1.19,2.41,2.41,0,0,1,.84-.84,2.32,2.32,0,0,1,1.17-.3,2.12,2.12,0,0,1,1.1.28,2,2,0,0,1,.75.79,2.34,2.34,0,0,1,.27,1.14,1.41,1.41,0,0,1,0,.2c0,.07,0,.15,0,.24H12.67v-.71H16l-.31.28a1.79,1.79,0,0,0-.16-.77,1.15,1.15,0,0,0-.46-.49,1.31,1.31,0,0,0-.71-.18,1.45,1.45,0,0,0-.76.19,1.3,1.3,0,0,0-.51.53,1.89,1.89,0,0,0,0,1.63,1.25,1.25,0,0,0,.54.55,1.6,1.6,0,0,0,.8.19,1.73,1.73,0,0,0,.69-.13,1.37,1.37,0,0,0,.55-.4l.55.56a2.32,2.32,0,0,1-.8.58A2.54,2.54,0,0,1,14.45,47.38Z"/><path class="cls-3" d="M17.53,47.28V42.79h.85v4.49Zm.85-2.55-.32-.15a2.13,2.13,0,0,1,.4-1.37,1.35,1.35,0,0,1,1.14-.51,1.48,1.48,0,0,1,.61.12,1.25,1.25,0,0,1,.51.39l-.55.57a.85.85,0,0,0-.31-.21,1,1,0,0,0-.4-.07,1.07,1.07,0,0,0-.78.3A1.27,1.27,0,0,0,18.38,44.73Z"/><path class="cls-3" d="M20.86,43.57v-.78h4.26v.78ZM22,47.28V42a1.57,1.57,0,0,1,.2-.79,1.5,1.5,0,0,1,.54-.55,1.62,1.62,0,0,1,.81-.2,1.49,1.49,0,0,1,.62.12,1.88,1.88,0,0,1,.49.32l-.57.57a1,1,0,0,0-.25-.16.84.84,0,0,0-.29,0,.66.66,0,0,0-.51.2.77.77,0,0,0-.18.54v5.3Zm3.1-5a.49.49,0,0,1-.38-.16.53.53,0,0,1-.15-.39.52.52,0,0,1,.15-.38.49.49,0,0,1,.38-.16.47.47,0,0,1,.39.16.52.52,0,0,1,.15.38.53.53,0,0,1-.15.39A.47.47,0,0,1,25.05,42.32Zm-.42,5V42.79h.86v4.49Z"/><path class="cls-3" d="M26.83,47.28V40.53h.85v6.75Z"/></g></g></svg>